#define superbus_width 128
#define superbus_height 64
static unsigned char superbus_bits[] = {
   0x00, 0x00, 0x00, 0x00, 0x00, 0x00, 0x00, 0x00, 0x00, 0x00, 0x00, 0x00,
   0x00, 0x00, 0x00, 0x00, 0x00, 0x00, 0x00, 0x00, 0x0f, 0x00, 0x00, 0x00,
   0x80, 0x01, 0x00, 0x00, 0x00, 0x00, 0x00, 0x00, 0x00, 0x00, 0x00, 0x80,
   0x11, 0x00, 0x00, 0x00, 0x80, 0x01, 0x00, 0x00, 0x00, 0x00, 0x00, 0x00,
   0x00, 0x00, 0x00, 0x80, 0x81, 0x91, 0x0f, 0x8f, 0x99, 0x8f, 0x11, 0x0f,
   0x00, 0x00, 0x00, 0x00, 0x00, 0x00, 0x00, 0x80, 0x81, 0x91, 0x91, 0x91,
   0x85, 0x91, 0x91, 0x11, 0x00, 0x00, 0x00, 0x00, 0x00, 0x00, 0x00, 0x00,
   0x8f, 0x91, 0x91, 0x91, 0x83, 0x91, 0x91, 0x01, 0x00, 0x00, 0x00, 0x00,
   0x00, 0x00, 0x00, 0x00, 0x98, 0x91, 0x91, 0x9f, 0x81, 0x91, 0x11, 0x0f,
   0x00, 0x00, 0x00, 0x00, 0x00, 0x00, 0x00, 0x00, 0x98, 0x91, 0x91, 0x81,
   0x81, 0x91, 0x11, 0x18, 0x00, 0x00, 0x00, 0x00, 0x00, 0x00, 0x00, 0x80,
   0x98, 0x91, 0x91, 0x91, 0x81, 0x91, 0x91, 0x18, 0x00, 0x00, 0x00, 0x00,
   0x00, 0x00, 0x00, 0x00, 0x0f, 0x8f, 0x0f, 0x8f, 0x81, 0x0f, 0x0f, 0x0f,
   0x00, 0x00, 0x00, 0x00, 0x00, 0x00, 0x00, 0x00, 0x00, 0x80, 0x01, 0x00,
   0x00, 0x00, 0x00, 0x00, 0x00, 0x00, 0x00, 0x00, 0x00, 0x00, 0x00, 0x00,
   0x00, 0x80, 0x01, 0x00, 0x00, 0x00, 0x00, 0x00, 0x00, 0x00, 0x00, 0x00,
   0x00, 0x00, 0x00, 0x00, 0x00, 0x00, 0x00, 0x00, 0x00, 0x00, 0x00, 0x00,
   0x00, 0x00, 0x00, 0x00, 0x00, 0x00, 0x00, 0x00, 0x00, 0x00, 0x00, 0x00,
   0x00, 0x00, 0x00, 0x00, 0x00, 0x00, 0x00, 0x00, 0x00, 0x00, 0x00, 0x00,
   0x00, 0x00, 0x00, 0x00, 0x00, 0x00, 0x00, 0x00, 0x00, 0x00, 0x00, 0x00,
   0x00, 0x00, 0x00, 0x00, 0x00, 0x00, 0x00, 0x00, 0x00, 0x00, 0x00, 0x00,
   0x00, 0x00, 0x00, 0x00, 0x00, 0x00, 0x00, 0x00, 0x00, 0x00, 0x00, 0x00,
   0x00, 0x00, 0x00, 0x00, 0x00, 0x00, 0x00, 0x00, 0x00, 0xc0, 0xff, 0xff,
   0xff, 0xff, 0xff, 0xff, 0xff, 0xff, 0xff, 0xff, 0xff, 0x07, 0x00, 0x00,
   0x00, 0x20, 0x00, 0x00, 0x00, 0x00, 0x00, 0x00, 0x00, 0x00, 0x00, 0x00,
   0x00, 0x08, 0x00, 0x00, 0x00, 0x10, 0x00, 0x00, 0x00, 0x00, 0x00, 0x00,
   0x00, 0x00, 0x00, 0x00, 0x00, 0x08, 0x00, 0x00, 0x00, 0x18, 0xff, 0xff,
   0xff, 0x7f, 0x00, 0xf8, 0xff, 0xff, 0xff, 0x03, 0x00, 0x10, 0x00, 0x00,
   0x00, 0x98, 0x00, 0x00, 0x00, 0x80, 0x00, 0x04, 0x00, 0x00, 0x00, 0x04,
   0x00, 0x1c, 0x00, 0x00, 0x00, 0x98, 0x00, 0x00, 0x00, 0x80, 0x00, 0x04,
   0x00, 0x00, 0x00, 0x04, 0x00, 0x22, 0x00, 0x00, 0x00, 0x98, 0x00, 0x00,
   0x00, 0x80, 0x00, 0x04, 0x00, 0x00, 0x00, 0x04, 0x00, 0x22, 0x00, 0x00,
   0x00, 0x98, 0x00, 0x00, 0x00, 0x80, 0x00, 0x04, 0x00, 0x00, 0x00, 0x04,
   0x00, 0x42, 0x00, 0x00, 0x00, 0x98, 0x00, 0x00, 0x00, 0x80, 0x00, 0x04,
   0x00, 0x00, 0x00, 0x04, 0x00, 0x42, 0x00, 0x00, 0x00, 0x98, 0x00, 0x00,
   0x00, 0x80, 0x00, 0x04, 0x00, 0x00, 0x00, 0x04, 0x00, 0x42, 0x00, 0x00,
   0x00, 0x98, 0x00, 0x00, 0x00, 0x80, 0x00, 0x04, 0x00, 0x00, 0x00, 0x04,
   0x00, 0x42, 0x00, 0x00, 0x00, 0x98, 0x00, 0x00, 0x00, 0x80, 0x00, 0x04,
   0x00, 0x00, 0x00, 0x04, 0x00, 0x42, 0x00, 0x00, 0x00, 0x98, 0x00, 0x00,
   0x00, 0x80, 0x00, 0x04, 0x00, 0x00, 0x00, 0x04, 0x00, 0x42, 0x00, 0x00,
   0x00, 0x98, 0x00, 0x00, 0x00, 0x80, 0x00, 0x04, 0x00, 0x00, 0x00, 0x04,
   0x00, 0x42, 0x00, 0x00, 0x00, 0x98, 0x00, 0x00, 0x00, 0x80, 0x00, 0x04,
   0x00, 0x00, 0x00, 0x04, 0x00, 0x42, 0x00, 0x00, 0x00, 0x98, 0x00, 0x00,
   0x00, 0x80, 0x00, 0x04, 0x00, 0x00, 0x00, 0x04, 0x00, 0x42, 0x00, 0x00,
   0x00, 0x98, 0x00, 0x00, 0x00, 0x80, 0x00, 0x04, 0x00, 0x00, 0x00, 0x04,
   0x00, 0x42, 0x00, 0x00, 0x00, 0x98, 0x00, 0x00, 0x00, 0x80, 0x00, 0x04,
   0x00, 0x00, 0x00, 0x04, 0x00, 0x42, 0x00, 0x00, 0x00, 0x98, 0x00, 0x00,
   0x00, 0x80, 0x00, 0x04, 0x00, 0x00, 0x00, 0x04, 0x00, 0x42, 0x00, 0x00,
   0x00, 0x98, 0x00, 0x00, 0x00, 0x80, 0x00, 0x04, 0x00, 0x00, 0x00, 0x04,
   0x00, 0x42, 0x00, 0x00, 0x00, 0x98, 0x00, 0x00, 0x00, 0x80, 0x00, 0x04,
   0x00, 0x00, 0x00, 0x04, 0x00, 0x42, 0x00, 0x00, 0x00, 0x98, 0x00, 0x00,
   0x00, 0x80, 0x00, 0x04, 0x00, 0x00, 0x00, 0x04, 0x00, 0x42, 0x00, 0x00,
   0x00, 0x18, 0xff, 0xff, 0xff, 0x7f, 0x00, 0xf8, 0xff, 0xff, 0xff, 0x03,
   0x00, 0x42, 0x00, 0x00, 0x00, 0x18, 0x00, 0x00, 0x00, 0x00, 0x00, 0x00,
   0x00, 0x00, 0x00, 0x00, 0x00, 0x4c, 0x00, 0x00, 0x00, 0x18, 0x00, 0x00,
   0x00, 0x00, 0x00, 0x00, 0x00, 0x00, 0x00, 0x00, 0x00, 0x70, 0x00, 0x00,
   0x00, 0xfc, 0xff, 0xff, 0xff, 0xff, 0xff, 0xff, 0xff, 0xff, 0xff, 0xff,
   0xff, 0x7f, 0x00, 0x00, 0x00, 0xf4, 0xff, 0xff, 0xff, 0xff, 0xff, 0xff,
   0xff, 0xff, 0xff, 0xff, 0xff, 0x7f, 0x00, 0x00, 0x00, 0xf4, 0xff, 0xff,
   0xff, 0xff, 0xff, 0xff, 0xff, 0xff, 0xff, 0xff, 0xff, 0x7f, 0x00, 0x00,
   0x00, 0xf4, 0xff, 0xff, 0xff, 0xff, 0xff, 0xff, 0xff, 0xff, 0xff, 0xff,
   0xff, 0x7f, 0x00, 0x00, 0x00, 0x14, 0x00, 0x00, 0x00, 0x00, 0x00, 0x00,
   0x00, 0x00, 0x00, 0x00, 0x00, 0x40, 0x00, 0x00, 0x00, 0x1c, 0x00, 0x00,
   0x00, 0x00, 0x00, 0x00, 0x00, 0x00, 0x00, 0x00, 0x00, 0x40, 0x00, 0x00,
   0x00, 0x18, 0x00, 0x00, 0x00, 0x00, 0x00, 0x00, 0x00, 0x00, 0x00, 0x00,
   0x00, 0x40, 0x00, 0x00, 0x00, 0x18, 0x00, 0x00, 0x00, 0x00, 0x00, 0x00,
   0x00, 0x00, 0x00, 0x00, 0x00, 0x40, 0x00, 0x00, 0x00, 0x18, 0x00, 0x00,
   0x00, 0x00, 0x00, 0x00, 0x00, 0x00, 0x00, 0x00, 0x00, 0x40, 0x00, 0x00,
   0x00, 0x18, 0x00, 0x00, 0x00, 0x00, 0x00, 0x00, 0x00, 0x00, 0x00, 0x00,
   0x00, 0x40, 0x00, 0x00, 0x00, 0x18, 0x7c, 0x00, 0x00, 0x00, 0x00, 0x00,
   0x00, 0x00, 0x00, 0x00, 0x3e, 0x40, 0x00, 0x00, 0x00, 0x18, 0x82, 0x00,
   0x00, 0x00, 0x00, 0x00, 0x00, 0x00, 0x00, 0x00, 0x41, 0x40, 0x00, 0x00,
   0x00, 0x18, 0x01, 0x01, 0x00, 0x00, 0x00, 0x00, 0x00, 0x00, 0x00, 0x80,
   0x80, 0x40, 0x00, 0x00, 0x00, 0x98, 0x38, 0x02, 0x00, 0x00, 0x00, 0x00,
   0x00, 0x00, 0x00, 0x40, 0x1c, 0x21, 0x00, 0x00, 0x00, 0x90, 0x7c, 0x02,
   0x00, 0x00, 0x00, 0x00, 0x00, 0x00, 0x00, 0x40, 0x3e, 0x11, 0x00, 0x00,
   0x00, 0xe0, 0x7c, 0xfe, 0xff, 0xff, 0xff, 0xff, 0xff, 0xff, 0xff, 0x7f,
   0x3e, 0x0f, 0x00, 0x00, 0x00, 0x80, 0x7c, 0x02, 0x00, 0x00, 0x00, 0x00,
   0x00, 0x00, 0x00, 0x40, 0x3e, 0x01, 0x00, 0x00, 0x00, 0x80, 0x38, 0x02,
   0x00, 0x00, 0x00, 0x00, 0x00, 0x00, 0x00, 0x40, 0x1c, 0x01, 0x00, 0x00,
   0x00, 0x00, 0x01, 0x01, 0x00, 0x00, 0x00, 0x00, 0x00, 0x00, 0x00, 0x80,
   0x80, 0x00, 0x00, 0x00, 0x00, 0x00, 0x82, 0x00, 0x00, 0x00, 0x00, 0x00,
   0x00, 0x00, 0x00, 0x00, 0x41, 0x00, 0x00, 0x00, 0x00, 0x00, 0x7c, 0x00,
   0x00, 0x00, 0x00, 0x00, 0x00, 0x00, 0x00, 0x00, 0x3e, 0x00, 0x00, 0x00,
   0x00, 0x00, 0x00, 0x00, 0x00, 0x00, 0x00, 0x00, 0x00, 0x00, 0x00, 0x00,
   0x00, 0x00, 0x00, 0x00 };
